<?xml version="1.0" encoding="UTF-8"?>
<!DOCTYPE svg PUBLIC "-//W3C//DTD SVG 1.1//EN" "http://www.w3.org/Graphics/SVG/1.1/DTD/svg11.dtd">
<!-- Creator: CorelDRAW -->
<svg xmlns="http://www.w3.org/2000/svg" xml:space="preserve" width="13.969mm" height="3.1948mm" style="shape-rendering:geometricPrecision; text-rendering:geometricPrecision; image-rendering:optimizeQuality; fill-rule:evenodd; clip-rule:evenodd"
viewBox="0 0 9.51302 2.17569"
 xmlns:xlink="http://www.w3.org/1999/xlink">
 <defs>
  <style type="text/css">
   <![CDATA[
    .fil0 {fill:white}
   ]]>
  </style>
 </defs>
 <g id="Layer_x0020_1">
  <metadata id="CorelCorpID_0Corel-Layer"/>
  <path class="fil0" d="M0.757487 0.0909828c-0.418276,0 -0.757487,0.339075 -0.757419,0.757419l0.000272404 1.32729 0.32777 0 0 -0.569937 0.429376 0c0.418276,0 0.757419,-0.339075 0.757419,-0.75735 0,-0.418344 -0.339143,-0.757419 -0.757419,-0.757419zm-0.429376 1.20484l-0.00803591 -0.447423c-0.00435846,-0.241554 0.195858,-0.43748 0.437412,-0.43748 0.241622,0 0.43748,0.195858 0.43748,0.43748 0,0.241554 -0.195994,0.431828 -0.43748,0.437412l-0.429376 0.0100108z"/>
  <path class="fil0" d="M3.97314 0.0399752c-0.418276,0 -0.757487,0.339075 -0.757419,0.757419l0.000204303 1.32736 0.32777 0 0 -0.569937 0.429444 0c0.418276,0 0.757419,-0.339143 0.757419,-0.757419 0,-0.418344 -0.339143,-0.757419 -0.757419,-0.757419zm-0.429444 1.20484l-0.00803591 -0.447423c-0.00429036,-0.241554 0.195926,-0.43748 0.43748,-0.43748 0.241622,0 0.437412,0.195858 0.437412,0.43748 0,0.241554 -0.195926,0.431828 -0.437412,0.437412l-0.429444 0.0100108z"/>
  <path class="fil0" d="M5.54348 0.0399752c0.418276,0 0.76886,0.339279 0.757419,0.757419l-0.0207708 0.759053 -0.736648 -0.00163442c-0.418276,0 -0.757419,-0.339143 -0.757419,-0.757419 0,-0.418344 0.339143,-0.757419 0.757419,-0.757419zm0.429444 1.20484l0.00803591 -0.447423c0.00429036,-0.241554 -0.195858,-0.43748 -0.43748,-0.43748 -0.241554,0 -0.437412,0.195858 -0.437412,0.43748 0,0.241554 0.195926,0.431828 0.437412,0.437412l0.429444 0.0100108z"/>
  <path class="fil0" d="M7.15278 0c-0.418344,0 -0.757487,0.339075 -0.757419,0.75735l0.000204303 1.32736 0.32777 0 0 -0.569937 0.429444 0c0.418276,0 0.757419,-0.339075 0.757419,-0.757419 0,-0.418276 -0.339143,-0.75735 -0.757419,-0.75735zm-0.429444 1.20484l-0.00803591 -0.447491c-0.00429036,-0.241554 0.195858,-0.437412 0.43748,-0.437412 0.241554,0 0.437412,0.195858 0.437412,0.437412 0,0.241622 -0.195926,0.431828 -0.437412,0.43748l-0.429444 0.0100108z"/>
  <path class="fil0" d="M8.75553 0c-0.418276,0 -0.757487,0.339075 -0.757419,0.75735l0.000272404 1.32736 0.32777 0 0 -0.569937 0.429376 0c0.418344,0 0.757419,-0.339075 0.757419,-0.757419 0,-0.418276 -0.339075,-0.75735 -0.757419,-0.75735zm-0.429376 1.20484l-0.00803591 -0.447491c-0.00435846,-0.241554 0.195858,-0.437412 0.437412,-0.437412 0.241622,0 0.43748,0.195858 0.43748,0.437412 0,0.241622 -0.195926,0.431828 -0.43748,0.43748l-0.429376 0.0100108z"/>
  <path class="fil0" d="M2.36385 0.0624486c-0.415552,0 -0.752379,0.336895 -0.752379,0.752447 0,0.415552 0.336827,0.752379 0.752379,0.752379 0.415552,0 0.752447,-0.336827 0.752447,-0.752379 0,-0.415552 -0.336895,-0.752447 -0.752447,-0.752447zm0.00251973 0.327497c-0.236106,0 -0.42747,0.191364 -0.42747,0.427401 0,0.236106 0.191364,0.42747 0.42747,0.42747 0.236106,0 0.42747,-0.191364 0.42747,-0.42747 0,-0.236038 -0.191364,-0.427401 -0.42747,-0.427401z"/>
  <circle class="fil0" cx="3.97252" cy="0.818204" r="0.159976"/>
  <circle class="fil0" cx="5.57221" cy="0.818204" r="0.159976"/>
 </g>
</svg>
